<?xml version="1.0" encoding="UTF-8"?> <svg xmlns="http://www.w3.org/2000/svg" width="167" height="168" viewBox="0 0 167 168" fill="none"> <path fill-rule="evenodd" clip-rule="evenodd" d="M91.7825 0.989014V42.3384L107.429 4.06326L122.762 10.3311L106.732 49.5432L136.686 19.5891L148.399 31.3019L119.159 60.5419L157.29 44.54L163.7 59.814L124.639 76.2062H167V92.7706H125.647H42.362H0V76.2062H41.3505L3.0758 60.56L9.34366 45.2272L48.5531 61.2555L18.5994 31.3019L30.3122 19.5891L59.5553 48.8321L43.5522 10.6986L58.8261 4.28875L75.2181 43.3488V0.989014L91.7825 0.989014Z" fill="#FFDB62"></path> <path fill-rule="evenodd" clip-rule="evenodd" d="M75.2175 167.771L75.2175 126.421L59.5711 164.696L44.2383 158.429L60.2677 119.217L30.3136 149.171L18.6008 137.458L47.8408 108.218L9.71005 124.22L3.30018 108.946L42.361 92.5535L1.59485e-05 92.5535L1.73966e-05 75.9891L41.3529 75.9891L124.638 75.9891L167 75.9891L167 92.5535L125.649 92.5535L163.924 108.2L157.656 123.533L118.447 107.504L148.401 137.458L136.688 149.171L107.445 119.928L123.448 158.061L108.174 164.471L91.7819 125.411L91.7819 167.771L75.2175 167.771Z" fill="#FFDB62"></path> </svg> 